nColumns=19
nRows=64
DataType=double
version=3
OpenSimVersion=4.1
endheader
time	ground_force_calcn_r_vx	ground_force_calcn_r_vy	ground_force_calcn_r_vz	ground_force_calcn_r_px	ground_force_calcn_r_py	ground_force_calcn_r_pz	ground_force_calcn_r_mx	ground_force_calcn_r_my	ground_force_calcn_r_mz	ground_force_calcn_l_vx	ground_force_calcn_l_vy	ground_force_calcn_l_vz	ground_force_calcn_l_px	ground_force_calcn_l_py	ground_force_calcn_l_pz	ground_force_calcn_l_mx	ground_force_calcn_l_my	ground_force_calcn_l_mz
1.3	-156.961	267.647	-17.0009	-0.130206	0	-0.371984	-0.271704	0.463304	-0.029429	-41.5286	70.5512	7.90806	-0.0618032	0	-0.73519	0.277494	-0.471423	-0.0528416
1.31	-399.588	697.247	-63.6784	-0.135982	0	-0.373631	-0.743124	1.29669	-0.118424	-244.967	411.055	38.5558	-0.0811533	0	-0.747754	0.16451	-0.276047	-0.0258924
1.32	-264.405	627.389	-73.1984	-0.144758	0	-0.373457	-0.707399	1.67854	-0.195838	-307.735	563.733	67.3818	-0.0854147	0	-0.745515	0.244464	-0.447829	-0.053528
1.33	-170.154	538.064	-70.2556	-0.160491	0	-0.374347	-0.185388	0.586239	-0.0765459	-183.955	601.55	45.3021	-0.119642	0	-0.734144	-0.454283	1.48555	0.111875
1.34	-149.299	698.917	-62.1006	-0.206209	0	-0.383616	0.341671	-1.59947	0.142117	-99.5775	960.643	-0.480512	-0.179539	0	-0.717942	-0.616146	5.94408	-0.00297322
1.35	-31.3367	1047.69	-59.7559	-0.25513	0	-0.39369	0.098409	-3.29013	0.187656	-42.914	1180.57	-12.191	-0.200976	0	-0.713264	-0.299458	8.23816	-0.0850699
1.36	-32.1862	1047.89	-79.2235	-0.261097	0	-0.394473	0.116759	-3.8013	0.28739	-161.016	852.593	32.8872	-0.184675	0	-0.717686	-1.36151	7.20929	0.278085
1.37	-152.534	795.665	-77.664	-0.236427	0	-0.390809	0.517697	-2.70047	0.26359	-254.538	559.113	61.7226	-0.150141	0	-0.726423	-1.96518	4.31667	0.476534
1.38	-168.37	615.102	-68.3612	-0.212393	0	-0.386735	0.730639	-2.66922	0.296652	-243.636	456.417	61.6008	-0.133037	0	-0.730476	-1.99642	3.74001	0.504775
1.39	-130.886	545.335	-59.2347	-0.203437	0	-0.384923	0.85984	-3.58253	0.389137	-188.001	433.846	48.7452	-0.134707	0	-0.729523	-2.03796	4.70295	0.528405
1.4	-111.181	503.062	-48.6918	-0.197661	0	-0.384519	0.986494	-4.46359	0.432035	-155.31	434.739	48.8216	-0.138311	0	-0.729101	-1.93298	5.41074	0.607631
1.41	-115.919	462.458	-46.9995	-0.189108	0	-0.383154	1.16078	-4.63089	0.470636	-149.864	457.089	49.9229	-0.142223	0	-0.728131	-1.93146	5.891	0.64341
1.42	-121.363	443.926	-52.832	-0.182977	0	-0.381866	1.24501	-4.55406	0.541982	-135.182	491.79	40.7115	-0.149345	0	-0.724848	-1.83142	6.66265	0.55155
1.43	-109.551	453.151	-56.7068	-0.184357	0	-0.382298	1.23729	-5.11797	0.640458	-103.48	523.153	35.319	-0.158335	0	-0.721975	-1.42777	7.21823	0.487316
1.44	-83.5193	479.59	-55.0927	-0.191693	0	-0.38458	1.04727	-6.01369	0.690821	-74.9129	526.151	38.4789	-0.1639	0	-0.721802	-1.01341	7.11765	0.520534
1.45	-55.1292	500.395	-53.1512	-0.199326	0	-0.386824	0.700764	-6.36068	0.675621	-69.0292	487.215	44.7327	-0.161385	0	-0.724319	-0.917014	6.47237	0.594249
1.46	-34.3186	511.079	-53.9811	-0.204102	0	-0.387797	0.417808	-6.22208	0.657186	-79.9939	438.62	47.2792	-0.153226	0	-0.727451	-1.11189	6.0967	0.657168
1.47	-25.0154	516.873	-56.6171	-0.205314	0	-0.387261	0.287466	-5.93966	0.650617	-92.2604	413.006	43.9632	-0.146534	0	-0.729045	-1.44896	6.48629	0.690446
1.48	-26.0338	506.802	-59.9178	-0.202509	0	-0.385748	0.283465	-5.51822	0.652404	-97.1881	409.761	38.9368	-0.144132	0	-0.728895	-1.71412	7.22702	0.686736
1.49	-32.8942	480.173	-60.8207	-0.196167	0	-0.384342	0.362953	-5.29821	0.671092	-92.6301	420.161	34.5839	-0.1455	0	-0.727548	-1.76139	7.98949	0.657623
1.5	-42.8419	450.513	-57.3433	-0.188169	0	-0.383743	0.522255	-5.49188	0.699032	-80.0002	444.23	30.94	-0.150042	0	-0.725264	-1.54584	8.58381	0.597851
1.51	-52.6673	428.102	-52.8219	-0.181418	0	-0.384051	0.71085	-5.77809	0.712936	-63.4957	478.512	31.5104	-0.155746	0	-0.723407	-1.14545	8.63224	0.56844
1.52	-58.0745	416.865	-47.103	-0.177833	0	-0.385366	0.884004	-6.34548	0.716997	-47.9555	511.577	36.2026	-0.160388	0	-0.722948	-0.759746	8.10479	0.573548
1.53	-58.0856	415.534	-39.4667	-0.17743	0	-0.387571	1.02148	-7.30747	0.694051	-36.5323	533.646	41.2621	-0.163043	0	-0.723639	-0.500358	7.30899	0.56514
1.54	-52.9629	422.676	-32.1638	-0.179717	0	-0.39045	1.04384	-8.3305	0.633915	-31.7153	539.982	45.2222	-0.163325	0	-0.724982	-0.383583	6.53087	0.546944
1.55	-43.2119	437.484	-27.4777	-0.183926	0	-0.39355	0.893199	-9.04289	0.567969	-32.0885	537.136	46.6591	-0.161851	0	-0.726311	-0.362741	6.072	0.527454
1.56	-29.7936	457.499	-27.5699	-0.188769	0	-0.396033	0.591059	-9.07608	0.546944	-32.8587	537.06	46.0454	-0.160233	0	-0.727235	-0.365203	5.96908	0.511765
1.57	-15.5643	477.86	-33.2228	-0.192416	0	-0.396988	0.273231	-8.38883	0.583226	-32.164	543.731	46.7251	-0.158404	0	-0.728021	-0.3491	5.90152	0.507142
1.58	-8.61269	491.048	-41.5739	-0.19222	0	-0.396446	0.129913	-7.40693	0.627098	-29.2009	557.272	49.3351	-0.15625	0	-0.728996	-0.295016	5.63012	0.498432
1.59	-11.7749	492.747	-45.9503	-0.188215	0	-0.395674	0.163941	-6.86047	0.639762	-25.7661	572.758	53.7112	-0.153589	0	-0.730214	-0.228912	5.08852	0.477184
1.6	-17.6355	489.452	-43.847	-0.182955	0	-0.395482	0.253848	-7.04524	0.63114	-23.2864	582.617	59.0304	-0.150395	0	-0.731497	-0.175561	4.39246	0.445041
1.61	-22.0838	487.75	-40.682	-0.178043	0	-0.395523	0.331471	-7.32099	0.610625	-21.4609	588.306	63.8419	-0.146922	0	-0.732525	-0.134034	3.67426	0.398724
1.62	-24.9142	487.777	-40.825	-0.173766	0	-0.395142	0.362414	-7.09546	0.593861	-21.0191	592.554	68.1133	-0.143298	0	-0.733196	-0.107627	3.03413	0.348769
1.63	-25.349	488.128	-43.8592	-0.17022	0	-0.394439	0.336459	-6.47896	0.582147	-22.3651	593.779	72.2303	-0.139536	0	-0.733666	-0.093815	2.49073	0.302985
1.64	-23.7056	489.4	-47.5274	-0.167788	0	-0.393836	0.283191	-5.84645	0.56777	-23.5664	592.683	75.7533	-0.135478	0	-0.734115	-0.081689	2.05444	0.262586
1.65	-20.4936	492.211	-51.0696	-0.166367	0	-0.393492	0.22159	-5.3221	0.552197	-23.9549	591.389	78.4518	-0.131406	0	-0.734597	-0.0694696	1.71504	0.227511
1.66	-15.5294	495.544	-55.0449	-0.165862	0	-0.393315	0.150243	-4.79425	0.532545	-23.3563	590.428	80.5416	-0.127745	0	-0.735177	-0.0554774	1.40242	0.191307
1.67	-8.33885	498.857	-60.9943	-0.165951	0	-0.393015	0.0691029	-4.13395	0.505451	-22.1491	589.071	82.8182	-0.124465	0	-0.735933	-0.0378748	1.00731	0.141619
1.68	-0.81529	501.926	-69.4699	-0.166261	0	-0.392432	0.00546133	-3.36222	0.465354	-21.3316	587.344	84.9506	-0.121478	0	-0.736789	-0.0234649	0.646081	0.093446
1.69	4.96672	502.937	-78.1369	-0.166457	0	-0.391929	-0.0264704	-2.68043	0.416434	-21.3391	584.941	85.8535	-0.11881	0	-0.737584	-0.0148228	0.406319	0.0596367
1.7	9.0543	502.015	-84.1505	-0.16656	0	-0.391847	-0.0413141	-2.29066	0.383973	-21.4336	581.163	85.7394	-0.116429	0	-0.738389	-0.00966198	0.261981	0.0386502
1.71	12.0732	501.924	-86.7646	-0.166275	0	-0.391942	-0.0533579	-2.21826	0.383458	-20.9164	575.689	85.7278	-0.114138	0	-0.739215	-0.00354092	0.0974582	0.0145128
1.72	13.3339	502.366	-87.2315	-0.165102	0	-0.391866	-0.0587548	-2.21364	0.384379	-20.2127	569.95	86.8607	-0.111551	0	-0.740137	0.00728238	-0.205345	-0.0312948
1.73	12.8786	499.385	-87.6774	-0.163017	0	-0.391542	-0.0520252	-2.01734	0.354187	-20.5141	564.246	88.4109	-0.108478	0	-0.740822	0.0211437	-0.581562	-0.0911241
1.74	12.0354	491.362	-88.2153	-0.160759	0	-0.391097	-0.0395191	-1.61342	0.28966	-21.8522	558.775	88.4936	-0.105326	0	-0.741157	0.0302275	-0.772938	-0.122411
1.75	11.0852	479.666	-88.158	-0.158547	0	-0.390751	-0.0263443	-1.13994	0.209511	-22.6315	553.934	86.9348	-0.102844	0	-0.741144	0.0317741	-0.777712	-0.122055
1.76	10.3279	465.85	-87.1833	-0.156437	0	-0.390515	-0.0157436	-0.710133	0.132901	-22.6955	548.959	84.8185	-0.100914	0	-0.741092	0.032347	-0.782409	-0.120888
1.77	9.25652	451.176	-85.3515	-0.154423	0	-0.390406	-0.00731734	-0.356658	0.067471	-22.2374	542.799	83.3663	-0.0990616	0	-0.741228	0.0364214	-0.889021	-0.136541
1.78	7.25631	435.648	-82.6811	-0.152245	0	-0.390384	-0.0010509	-0.0630929	0.0119743	-21.6916	535.118	83.0916	-0.0971273	0	-0.741503	0.045053	-1.11143	-0.172579
1.79	4.28954	419.836	-79.3937	-0.15017	0	-0.390632	0.0012617	0.123488	-0.0233524	-21.6611	526.594	83.6724	-0.0950536	0	-0.741803	0.056661	-1.37746	-0.21887
1.8	0.32912	403.908	-74.9391	-0.148124	0	-0.391124	0.000127808	0.156851	-0.0291013	-22.0405	518.163	84.7225	-0.0928885	0	-0.742102	0.0687925	-1.61728	-0.264435
1.81	-4.09196	386.206	-68.1742	-0.146103	0	-0.391985	-0.000120915	0.0114121	-0.0020145	-22.797	509.814	85.7719	-0.0908511	0	-0.74243	0.0806985	-1.80468	-0.303622
1.82	-8.59651	366.625	-60.0114	-0.14409	0	-0.393067	0.00554904	-0.236656	0.0387373	-24.2231	501.443	86.3612	-0.0888388	0	-0.74251	0.0907659	-1.87895	-0.323603
1.83	-12.7501	347.051	-52.1427	-0.142086	0	-0.394075	0.0167456	-0.455806	0.0684826	-26.7138	493.815	85.7621	-0.0868717	0	-0.742432	0.0948598	-1.75352	-0.304538
1.84	-16.8813	330.376	-46.0805	-0.140237	0	-0.394805	0.0283895	-0.555599	0.0774943	-29.9958	487.929	83.844	-0.0850747	0	-0.742289	0.0910266	-1.48069	-0.254436
1.85	-20.58	320.242	-43.4952	-0.138536	0	-0.394963	0.0320519	-0.498754	0.0677407	-32.6866	484.257	81.2203	-0.0834486	0	-0.741999	0.079979	-1.1849	-0.198733
1.86	-23.313	317.93	-45.1028	-0.136818	0	-0.394515	0.0212361	-0.289606	0.0410847	-33.6787	483.225	79.1664	-0.0820214	0	-0.741677	0.0691633	-0.99236	-0.162578
1.87	-25.1072	323.615	-50.3256	-0.135576	0	-0.393396	-0.00148276	0.0191118	-0.00297209	-33.9497	484.936	78.0968	-0.0808946	0	-0.741522	0.065206	-0.931399	-0.149998
1.88	-25.591	336.154	-57.8534	-0.134718	0	-0.392142	-0.0292143	0.383748	-0.0660446	-34.7069	488.635	78.0552	-0.0799436	0	-0.741505	0.0700087	-0.985645	-0.157448
1.89	-25.1289	353.296	-65.4664	-0.134378	0	-0.390885	-0.0504573	0.709397	-0.131453	-35.5838	493.697	78.5565	-0.0790036	0	-0.741548	0.0786968	-1.09185	-0.173735
1.9	-22.6728	374.871	-71.8368	-0.134702	0	-0.389974	-0.051128	0.845349	-0.161995	-35.7787	499.219	78.6405	-0.0781526	0	-0.741576	0.0877688	-1.22463	-0.192913
1.91	-17.1165	399.732	-76.4612	-0.135389	0	-0.389383	-0.0306704	0.716266	-0.137008	-35.1565	505.035	78.4923	-0.0773597	0	-0.741427	0.0917567	-1.31812	-0.204861
1.92	-10.8749	425.588	-79.2877	-0.136248	0	-0.388892	-0.00922043	0.36084	-0.0672251	-34.0457	511.641	78.8328	-0.0768223	0	-0.741465	0.0904748	-1.35966	-0.209495
1.93	-7.37738	450.044	-80.7128	-0.136826	0	-0.388631	0.00118564	-0.0723282	0.0129716	-32.6787	517.78	79.3909	-0.0763944	0	-0.741587	0.0858839	-1.36079	-0.20865
